<svg id="Layer_1" data-name="Layer 1" xmlns="http://www.w3.org/2000/svg" xmlns:xlink="http://www.w3.org/1999/xlink" viewBox="0 0 17 20"><defs><style>.cls-1{fill:none;}.cls-2{clip-path:url(#clip-path);}.cls-3{fill:#769399;}</style><clipPath id="clip-path"><rect class="cls-1" x="0.02" y="1.52" width="16.96" height="16.96"/></clipPath></defs><title>LMA-</title><g class="cls-2"><path class="cls-3" d="M8.5,1.52c-2.3,0-2.59,0-3.5.05A6.13,6.13,0,0,0,3,2,4.22,4.22,0,0,0,.47,4.45,6.08,6.08,0,0,0,.07,6.5C0,7.41,0,7.7,0,10s0,2.59.05,3.5a6.13,6.13,0,0,0,.4,2.05A4.22,4.22,0,0,0,3,18a6.13,6.13,0,0,0,2.05.4c.91,0,1.2.05,3.5.05s2.59,0,3.5-.05a6.08,6.08,0,0,0,2.05-.4,4.22,4.22,0,0,0,2.48-2.48,6.13,6.13,0,0,0,.4-2.05c0-.91.05-1.2.05-3.5s0-2.59-.05-3.5a6.08,6.08,0,0,0-.4-2A4.22,4.22,0,0,0,14.05,2,6.08,6.08,0,0,0,12,1.57c-.91,0-1.2-.05-3.5-.05m0,1.53c2.26,0,2.53,0,3.43.05a4.68,4.68,0,0,1,1.57.29A2.74,2.74,0,0,1,15.11,5a4.68,4.68,0,0,1,.29,1.57c0,.9,0,1.17,0,3.43s0,2.53,0,3.43A4.68,4.68,0,0,1,15.11,15a2.82,2.82,0,0,1-1.61,1.61,4.68,4.68,0,0,1-1.57.29c-.9,0-1.17.05-3.43.05s-2.53,0-3.43-.05a4.68,4.68,0,0,1-1.57-.29,2.46,2.46,0,0,1-1-.64,2.46,2.46,0,0,1-.64-1,4.68,4.68,0,0,1-.29-1.57c0-.9-.05-1.17-.05-3.43s0-2.53.05-3.43A4.68,4.68,0,0,1,1.89,5a2.57,2.57,0,0,1,.64-1,2.55,2.55,0,0,1,1-.63A4.68,4.68,0,0,1,5.07,3.1c.9,0,1.17-.05,3.43-.05"/><path class="cls-3" d="M8.5,12.83A2.83,2.83,0,1,1,11.33,10,2.83,2.83,0,0,1,8.5,12.83m0-7.18A4.35,4.35,0,1,0,12.85,10,4.35,4.35,0,0,0,8.5,5.65"/><path class="cls-3" d="M14,5.47a1,1,0,1,1-1-1,1,1,0,0,1,1,1"/></g></svg>